<svg width="12" height="12" viewBox="0 0 12 12" fill="none" xmlns="http://www.w3.org/2000/svg">
<rect width="12" height="12" fill="#E5E5E5"/>
<g id="About us" clip-path="url(#clip0_1_2)">
<rect width="1440" height="3704" transform="translate(-1147 -3535)" fill="url(#paint0_linear_1_2)"/>
<g id="Footer">
<rect id="Rectangle 21" x="-1147" y="-207" width="1440" height="376" fill="#070707"/>
<g id="Group 84">
<g id="Group 73">
<g id="Group 72">
<g id="Group 71">
<g id="Group 12">
<g id="Group 5">
<g id="Ellipse 1" filter="url(#filter0_d_1_2)">
<circle cx="6.00073" cy="6" r="17" fill="white"/>
</g>
<g id="facebook 1" clip-path="url(#clip1_1_2)">
<path id="Vector" d="M7.99924 1.9925H9.09474V0.0845C8.90574 0.0585 8.25574 0 7.49874 0C5.91924 0 4.83724 0.9935 4.83724 2.8195V4.5H3.09424V6.633H4.83724V12H6.97424V6.6335H8.64674L8.91224 4.5005H6.97374V3.031C6.97424 2.4145 7.14024 1.9925 7.99924 1.9925Z" fill="black"/>
</g>
</g>
</g>
</g>
</g>
</g>
</g>
</g>
</g>
<defs>
<filter id="filter0_d_1_2" x="-24.9993" y="-21" width="62" height="62" filterUnits="userSpaceOnUse" color-interpolation-filters="sRGB">
<feFlood flood-opacity="0" result="BackgroundImageFix"/>
<feColorMatrix in="SourceAlpha" type="matrix" values="0 0 0 0 0 0 0 0 0 0 0 0 0 0 0 0 0 0 127 0" result="hardAlpha"/>
<feOffset dy="4"/>
<feGaussianBlur stdDeviation="7"/>
<feColorMatrix type="matrix" values="0 0 0 0 0 0 0 0 0 0 0 0 0 0 0 0 0 0 0.15 0"/>
<feBlend mode="normal" in2="BackgroundImageFix" result="effect1_dropShadow_1_2"/>
<feBlend mode="normal" in="SourceGraphic" in2="effect1_dropShadow_1_2" result="shape"/>
</filter>
<linearGradient id="paint0_linear_1_2" x1="623.5" y1="-601" x2="720" y2="3704" gradientUnits="userSpaceOnUse">
<stop stop-color="#010101"/>
<stop offset="1" stop-color="#1A0E01"/>
</linearGradient>
<clipPath id="clip0_1_2">
<rect width="1440" height="3704" fill="white" transform="translate(-1147 -3535)"/>
</clipPath>
<clipPath id="clip1_1_2">
<rect width="12" height="12" fill="white" transform="translate(0.000732422)"/>
</clipPath>
</defs>
</svg>
