<svg width="13" height="13" viewBox="0 0 13 13" fill="none" xmlns="http://www.w3.org/2000/svg">
<rect width="13" height="13" fill="#E5E5E5"/>
<g clip-path="url(#clip0_1_2)">
<rect width="1440" height="3704" transform="translate(-1197 -3534)" fill="url(#paint0_linear_1_2)"/>
<rect x="-1197" y="-206" width="1440" height="376" fill="#070707"/>
<g filter="url(#filter0_d_1_2)">
<circle cx="6.00073" cy="7" r="17" fill="white"/>
</g>
<g clip-path="url(#clip1_1_2)">
<path d="M9.48173 0H3.51971C1.57931 0 0.000732422 1.57858 0.000732422 3.51898V9.4811C0.000732422 11.4214 1.57931 13 3.51971 13H9.48183C11.4221 13 13.0007 11.4214 13.0007 9.4811V3.51898C13.0007 1.57858 11.4221 0 9.48173 0V0ZM12.2386 9.4811C12.2386 11.0012 11.0019 12.2379 9.48173 12.2379H3.51971C1.99955 12.2379 0.762847 11.0012 0.762847 9.4811V3.51898C0.762847 1.99881 1.99955 0.762114 3.51971 0.762114H9.48183C11.0019 0.762114 12.2386 1.99881 12.2386 3.51898V9.4811Z" fill="black"/>
<path d="M6.50075 2.94543C4.54071 2.94543 2.94617 4.53998 2.94617 6.50002C2.94617 8.46005 4.54071 10.0546 6.50075 10.0546C8.46078 10.0546 10.0553 8.46005 10.0553 6.50002C10.0553 4.53998 8.46078 2.94543 6.50075 2.94543ZM6.50075 9.29248C4.96105 9.29248 3.70828 8.03982 3.70828 6.50002C3.70828 4.96032 4.96105 3.70755 6.50075 3.70755C8.04055 3.70755 9.29322 4.96032 9.29322 6.50002C9.29322 8.03982 8.04055 9.29248 6.50075 9.29248Z" fill="black"/>
<path d="M10.1403 1.68304C9.56108 1.68304 9.08997 2.15426 9.08997 2.73338C9.08997 3.3126 9.56108 3.78382 10.1403 3.78382C10.7195 3.78382 11.1907 3.3126 11.1907 2.73338C11.1907 2.15416 10.7195 1.68304 10.1403 1.68304ZM10.1403 3.0216C9.98141 3.0216 9.85208 2.89227 9.85208 2.73338C9.85208 2.57439 9.98141 2.44516 10.1403 2.44516C10.2993 2.44516 10.4286 2.57439 10.4286 2.73338C10.4286 2.89227 10.2993 3.0216 10.1403 3.0216Z" fill="black"/>
</g>
</g>
<defs>
<filter id="filter0_d_1_2" x="-24.9993" y="-20" width="62" height="62" filterUnits="userSpaceOnUse" color-interpolation-filters="sRGB">
<feFlood flood-opacity="0" result="BackgroundImageFix"/>
<feColorMatrix in="SourceAlpha" type="matrix" values="0 0 0 0 0 0 0 0 0 0 0 0 0 0 0 0 0 0 127 0" result="hardAlpha"/>
<feOffset dy="4"/>
<feGaussianBlur stdDeviation="7"/>
<feColorMatrix type="matrix" values="0 0 0 0 0 0 0 0 0 0 0 0 0 0 0 0 0 0 0.15 0"/>
<feBlend mode="normal" in2="BackgroundImageFix" result="effect1_dropShadow_1_2"/>
<feBlend mode="normal" in="SourceGraphic" in2="effect1_dropShadow_1_2" result="shape"/>
</filter>
<linearGradient id="paint0_linear_1_2" x1="623.5" y1="-601" x2="720" y2="3704" gradientUnits="userSpaceOnUse">
<stop stop-color="#010101"/>
<stop offset="1" stop-color="#1A0E01"/>
</linearGradient>
<clipPath id="clip0_1_2">
<rect width="1440" height="3704" fill="white" transform="translate(-1197 -3534)"/>
</clipPath>
<clipPath id="clip1_1_2">
<rect width="13" height="13" fill="white" transform="translate(0.000732422)"/>
</clipPath>
</defs>
</svg>
