<svg width="11" height="11" viewBox="0 0 11 11" fill="none" xmlns="http://www.w3.org/2000/svg">
<rect width="11" height="11" fill="#E5E5E5"/>
<g clip-path="url(#clip0_1_2)">
<rect width="1440" height="3704" transform="translate(-1297 -3535)" fill="url(#paint0_linear_1_2)"/>
<rect x="-1297" y="-207" width="1440" height="376" fill="#070707"/>
<g filter="url(#filter0_d_1_2)">
<circle cx="6.00073" cy="6" r="17" fill="white"/>
</g>
<g clip-path="url(#clip1_1_2)">
<path d="M10.998 11V10.9996H11.0008V6.96531C11.0008 4.99173 10.5759 3.47144 8.26863 3.47144C7.15946 3.47144 6.41512 4.0801 6.11125 4.65714H6.07917V3.65569H3.89154V10.9996H6.16946V7.36314C6.16946 6.40569 6.35096 5.47985 7.53667 5.47985C8.70496 5.47985 8.72237 6.57252 8.72237 7.42456V11H10.998Z" fill="black"/>
<path d="M0.182251 3.65613H2.46292V11H0.182251V3.65613Z" fill="black"/>
<path d="M1.32165 0C0.592441 0 0.000732422 0.591708 0.000732422 1.32092C0.000732422 2.05013 0.592441 2.65421 1.32165 2.65421C2.05086 2.65421 2.64257 2.05013 2.64257 1.32092C2.64211 0.591708 2.0504 0 1.32165 0V0Z" fill="black"/>
</g>
</g>
<defs>
<filter id="filter0_d_1_2" x="-24.9993" y="-21" width="62" height="62" filterUnits="userSpaceOnUse" color-interpolation-filters="sRGB">
<feFlood flood-opacity="0" result="BackgroundImageFix"/>
<feColorMatrix in="SourceAlpha" type="matrix" values="0 0 0 0 0 0 0 0 0 0 0 0 0 0 0 0 0 0 127 0" result="hardAlpha"/>
<feOffset dy="4"/>
<feGaussianBlur stdDeviation="7"/>
<feColorMatrix type="matrix" values="0 0 0 0 0 0 0 0 0 0 0 0 0 0 0 0 0 0 0.15 0"/>
<feBlend mode="normal" in2="BackgroundImageFix" result="effect1_dropShadow_1_2"/>
<feBlend mode="normal" in="SourceGraphic" in2="effect1_dropShadow_1_2" result="shape"/>
</filter>
<linearGradient id="paint0_linear_1_2" x1="623.5" y1="-601" x2="720" y2="3704" gradientUnits="userSpaceOnUse">
<stop stop-color="#010101"/>
<stop offset="1" stop-color="#1A0E01"/>
</linearGradient>
<clipPath id="clip0_1_2">
<rect width="1440" height="3704" fill="white" transform="translate(-1297 -3535)"/>
</clipPath>
<clipPath id="clip1_1_2">
<rect width="11" height="11" fill="white" transform="translate(0.000732422)"/>
</clipPath>
</defs>
</svg>
